<svg width="185" height="185" viewBox="0 0 185 185" fill="none" xmlns="http://www.w3.org/2000/svg">
<rect width="185" height="185" fill="#596467"/>
<g clip-path="url(#clip0_0_1)">
<rect width="360" height="800" transform="translate(-87 -91)" fill="white"/>
<rect x="-87" y="-91" width="360" height="800" fill="#F5FFF6"/>
<path d="M92.5 185C143.586 185 185 143.586 185 92.5C185 41.4137 143.586 0 92.5 0C41.4137 0 0 41.4137 0 92.5C0 143.586 41.4137 185 92.5 185Z" fill="#04984A"/>
<path d="M92.5 183C142.482 183 183 142.482 183 92.5C183 42.5182 142.482 2 92.5 2C42.5182 2 2 42.5182 2 92.5C2 142.482 42.5182 183 92.5 183Z" fill="#FAFAFF"/>
<path d="M17.7255 71.7642L15.6813 71L14.47 75.1849L16.5899 75.5124C9.13243 83.3364 15.4921 88.3583 16.2113 88.7949C18.1798 89.923 17.9905 86.0657 17.8769 85.2651C17.7255 84.5009 17.6877 83.3 17.7634 82.8269C18.2933 80.3887 19.5047 81.2985 19.7318 81.626C19.959 81.9535 21.246 83.0089 21.511 85.8473L23.2524 84.6828C23.0252 82.7905 21.7003 80.4979 21.2839 80.134C18.0662 77.2228 17.1198 82.463 16.5899 83.7003C16.0599 84.9012 15.3785 83.5911 15.2649 83.2636C14.205 79.4062 16.5899 77.15 17.6877 76.1311L26.2429 78.0597L27 75.7672L17.2334 73.2926" fill="#04984A"/>
<path d="M17.7255 71.7642L15.6813 71L14.47 75.1849L16.5899 75.5124C9.13243 83.3364 15.4921 88.3583 16.2113 88.7949C18.1798 89.923 17.9905 86.0657 17.8769 85.2651C17.7255 84.5009 17.6877 83.3 17.7634 82.8269C18.2933 80.3887 19.5047 81.2985 19.7318 81.626C19.959 81.9535 21.246 83.0089 21.511 85.8473L23.2524 84.6828C23.0252 82.7905 21.7003 80.4979 21.2839 80.134C18.0662 77.2228 17.1198 82.463 16.5899 83.7003C16.0599 84.9012 15.3785 83.5911 15.2649 83.2636C14.205 79.4062 16.5899 77.15 17.6877 76.1311L26.2429 78.0597L27 75.7672L17.2334 73.2926L17.7255 71.7642Z" stroke="#04984A" stroke-width="0.26486"/>
<path d="M25.5272 54.0004L23.6035 53L21.4208 56.5729L23.3445 57.8591C17.4255 61.1819 17.8694 65.9338 18.1284 66.6841C19.9041 71.972 23.0116 71.0073 23.4925 70.7929C26.3041 69.5067 26.0451 65.3621 26.1191 64.0759L23.6035 64.0402C24.3804 65.9338 23.8255 68.9708 23.4555 69.3638C21.7168 71.2217 20.9769 69.6139 20.8289 69.0779C18.7203 62.6825 23.7515 59.7885 24.5653 59.3597C25.4162 58.8952 25.8601 59.324 26.1931 59.3597L31.8532 62.4324L33 60.503L24.4544 55.8583" fill="#04984A"/>
<path d="M25.5272 54.0004L23.6035 53L21.4208 56.5729L23.3445 57.8591C17.4255 61.1819 17.8694 65.9338 18.1284 66.6841C19.9041 71.972 23.0116 71.0073 23.4925 70.7929C26.3041 69.5067 26.0451 65.3621 26.1191 64.0759L23.6035 64.0402C24.3804 65.9338 23.8255 68.935 23.4555 69.3638C21.7168 71.2217 20.9769 69.6139 20.8289 69.0779C18.7203 62.6825 23.7515 59.7885 24.5653 59.3597C25.4162 58.8952 25.8601 59.324 26.1931 59.3597L31.8532 62.4324L33 60.503L24.4544 55.8583L25.5272 54.0004Z" stroke="#04984A" stroke-width="0.26486"/>
<path d="M45.6995 31.7426C45.2645 34.7275 46.7872 35.6857 47.6211 35.7594C51.6093 36.091 52.1532 33.622 52.9146 32.5901C54.4736 32.5533 53.2046 35.4277 52.8783 35.8331C49.6877 39.7025 43.5967 37.344 42.654 36.8649L42.1101 37.7862C52.5158 41.6187 55.0537 36.7175 55.1987 36.1279C56.6127 30.6739 52.262 30.8213 51.4281 30.9318C50.6667 35.354 47.7299 34.8012 47.4036 34.1011C46.2071 31.7426 49.9053 29.1998 50.8117 28.647C52.0082 29.1998 55.9964 28.905 56.9391 28.8313C55.7426 31.4846 57.7004 35.2434 58.0993 35.7594L59.3682 35.3172C57.2291 32.2216 59.2232 27.9837 59.7308 27.3572L58.6794 26.3991C56.3952 28.7576 53.966 28.0943 52.9871 28.0574C52.0082 28.0206 52.1169 27.6152 52.552 27.2835L60.7822 22.8245L64.3716 32.0742L66.257 31.1529L62.8489 22.0875C75.3574 16.3018 92.3254 15.749 93.4131 15.8596C94.5371 15.9333 94.102 18.2181 93.9569 18.5866C92.7967 18.3286 91.9266 18.9551 91.274 19.0657C87.7571 14.7541 84.9653 18.5129 84.349 19.2868L86.0168 20.6503C88.3372 16.7072 90.6576 18.9183 90.9839 19.471L89.3524 20.9082L91.0202 22.1612C92.833 19.4342 94.1745 19.8027 94.6821 20.0607C95.6973 20.6134 95.0084 23.3036 94.8996 24.2617C91.3465 21.0188 84.3852 27.6521 86.3793 22.1612L85.2916 22.5297C84.5303 30.2317 93.7394 22.3455 95.4435 25.8463L96.4224 25.8095C97.9814 20.0607 95.8423 19.471 95.2259 18.992C96.2774 18.5866 95.9873 17.0388 95.9873 16.1544C95.9873 16.1544 98.489 16.265 100.338 16.3755L99.2504 26.0674L101.099 26.2148L102.223 16.7072L103.782 16.8914L104 14.8278L102.042 14.6435C100.193 6.49934 90.8751 9.4106 89.2799 9.92652L89.7875 12.1008C100.411 8.30506 100.556 13.6854 100.483 14.4592C79.5994 12.3587 63.9366 19.471 63.2477 19.729C46.9685 25.92 36.998 36.9018 35.6927 38.2653L37.8319 40.5501C28.1876 39.7762 28.949 48.8416 29.0578 50.0946C30.5806 51.0896 31.0882 49.0259 31.2694 48.5468C31.4507 48.0677 34.0612 47.1833 33.5536 50.1683L35.4752 50.1314L38.5208 41.3239L42.2552 45.1933C36.0553 46.262 38.2307 49.9103 36.3454 52.4899C34.8588 54.9958 32.5747 53.0795 32.2121 52.2688L32.0308 53.4481C37.7594 57.9071 38.8471 51.6792 39.8622 48.2889C40.4423 46.3726 42.4365 45.5987 44.068 46.1883L44.9744 45.2302L38.3757 38.081M34.605 46.9622C34.5688 47.1833 34.0975 47.9572 33.8437 47.3307C33.5899 46.7042 32.2121 46.6674 31.7408 46.9991C31.4507 47.2202 31.0157 47.2202 31.1607 46.4094C31.342 45.5987 32.1396 41.5819 36.0916 41.9504L34.605 46.9622Z" fill="#04984A"/>
<path d="M34.5014 47.3533C34.4649 47.5884 33.9897 48.4111 33.7338 47.7451C33.478 47.0791 32.089 47.0399 31.6139 47.3925C31.3214 47.6276 30.8828 47.6276 31.029 46.7657C31.2118 45.9038 32.0159 41.6336 36 42.0253L34.5014 47.3533Z" stroke="#04984A" stroke-width="0.26486"/>
<path d="M45.6995 31.7426C45.2645 34.7275 46.7872 35.6857 47.6211 35.7594C51.6093 36.091 52.1532 33.622 52.9146 32.5901C54.4736 32.5533 53.2046 35.4277 52.8783 35.8331C49.6878 39.7025 43.5967 37.344 42.654 36.8649L42.1101 37.7862C52.5158 41.6187 55.0537 36.7175 55.1987 36.1279C56.6127 30.6739 52.262 30.8213 51.4281 30.9318C50.6667 35.354 47.7299 34.8012 47.4036 34.1011C46.2071 31.7426 49.9053 29.1998 50.8117 28.647C52.0082 29.1998 55.9964 28.905 56.9391 28.8313C55.7426 31.4846 57.7004 35.2434 58.0993 35.7594L59.3682 35.3172C57.2291 32.2216 59.2232 27.9837 59.7308 27.3572L58.6794 26.3991C56.3952 28.7576 53.966 28.0943 52.9871 28.0574C52.0082 28.0206 52.1169 27.6152 52.552 27.2835L60.7822 22.8245L64.3716 32.0742L66.257 31.1529L62.8489 22.0875C75.3574 16.3018 92.3254 15.749 93.4131 15.8596C94.5371 15.9333 94.102 18.2181 93.9569 18.5866C92.7967 18.3286 91.9266 18.9551 91.274 19.0657C87.7571 14.7541 84.9653 18.5129 84.349 19.2868L86.0168 20.6503C88.3372 16.7072 90.6576 18.9183 90.9839 19.471L89.3524 20.9082L91.0202 22.1612C92.833 19.4342 94.1745 19.8027 94.6821 20.0607C95.6973 20.6134 95.0084 23.3036 94.8996 24.2617C91.3465 21.0188 84.3852 27.6521 86.3793 22.1612L85.2916 22.5297C84.5303 30.2317 93.7394 22.3455 95.4435 25.8463L96.4224 25.8095C97.9814 20.0607 95.8423 19.471 95.2259 18.992C96.2774 18.5866 95.9873 17.0388 95.9873 16.1544C95.9873 16.1544 98.489 16.265 100.338 16.3755L99.2504 26.0674L101.099 26.2149L102.223 16.7072L103.782 16.8914L104 14.8278L102.042 14.6435C100.193 6.49934 90.8751 9.4106 89.2799 9.92652L89.7875 12.1008C100.411 8.30506 100.556 13.6854 100.483 14.4592C79.5994 12.3587 63.9366 19.471 63.2477 19.729C46.9685 25.92 36.998 36.9018 35.6927 38.2653L37.8319 40.5501C28.1876 39.7762 28.949 48.8416 29.0578 50.0946C30.5806 51.0896 31.0882 49.0259 31.2694 48.5468C31.4507 48.0677 34.0612 47.1833 33.5536 50.1683L35.4752 50.1314L38.5207 41.3239L42.2552 45.1933C36.0553 46.262 38.2307 49.9103 36.3454 52.4899C34.8588 54.9958 32.5747 53.0795 32.2121 52.2688L32.0308 53.4481C37.7594 57.9071 38.8471 51.6792 39.8622 48.2889C40.4423 46.3726 42.4365 45.5987 44.068 46.1883L44.9744 45.2302L38.3757 38.081L45.6995 31.7426Z" stroke="#04984A" stroke-width="0.26486"/>
<path d="M77.2141 25.3177C72.8531 27.7781 67.9057 23.2418 66.8795 22.2807L66 22.5113C70.361 29.3158 76.7743 27.9703 77.3607 27.7397C83.1876 25.5484 81.9783 20.6276 81.7217 20.1663C79.0465 15.4377 73.6227 19.7818 72.7065 20.7429L74.7587 22.6267C74.9786 21.9731 76.2613 20.3585 76.7377 20.0125C79.3397 18.1672 80.5124 20.5892 80.4757 21.012C80.1826 23.5109 77.6905 25.0486 77.2141 25.3177Z" fill="#04984A"/>
<path d="M77.2141 25.3177C72.8531 27.7781 67.9057 23.2418 66.8795 22.2807L66 22.5113C70.361 29.3158 76.7743 27.9703 77.3607 27.7397C83.1876 25.5484 81.9783 20.6276 81.7217 20.1663C79.0465 15.4377 73.6227 19.7818 72.7065 20.7429L74.7587 22.6267C74.9786 21.9731 76.2613 20.3585 76.7377 20.0125C79.3397 18.1672 80.5124 20.5892 80.4757 21.012C80.1826 23.5109 77.6905 25.0486 77.2141 25.3177V25.3177Z" stroke="#04984A" stroke-width="0.26486"/>
<path d="M109 20.8413L109.32 23.0957C116.26 24.7217 117.114 29.637 117.292 30.7087L118.004 30.7826L122.096 21.913L125.228 23.3913L120.815 32.187L122.63 33L126.758 24.2413L128.11 24.7957L129 22.8739C120.423 18.4391 111.278 16.3326 110.21 16L109.534 18.0696C110.957 17.9957 120.566 21.137 120.566 21.137L120.21 22.0609M117.719 26.6804C117.719 26.6804 115.762 24.0935 114.801 23.5761L119.427 23.5391L117.719 26.6804Z" fill="#04984A"/>
<path d="M118.154 26C118.154 26 116.038 23.5294 115 23.0353L120 23L118.154 26Z" stroke="#04984A" stroke-width="0.26486"/>
<path d="M109 20.8413L109.32 23.0957C116.26 24.7217 117.114 29.637 117.292 30.7087L118.004 30.7826L122.096 21.913L125.228 23.3913L120.815 32.187L122.63 33L126.758 24.2413L128.11 24.7957L129 22.8739C120.423 18.4391 111.278 16.3326 110.21 16L109.534 18.0696C110.957 17.9957 120.566 21.137 120.566 21.137L120.21 22.0609L109 20.8413Z" stroke="#04984A" stroke-width="0.26486"/>
<path d="M136.393 26.7338C133.931 23.4002 130.237 25.7814 129.766 26.4408C127.992 28.9685 129.766 30.7635 130.418 31.2031C131.758 32.1556 134.293 32.1189 134.945 31.7892C138.204 30.1407 136.683 27.1002 136.393 26.7338ZM134.438 30.3239C133.569 30.4704 132.374 30.617 130.961 29.9942C129.368 29.2982 130.201 27.8328 130.599 27.4665C130.744 27.0269 134.655 26.1843 136.104 27.8328C136.393 28.1259 137.045 29.8477 134.438 30.3239Z" fill="#04984A"/>
<path d="M134.158 29.8577C133.339 30.0207 132.214 30.1838 130.883 29.4908C129.383 28.7164 130.167 27.0859 130.542 26.6783C130.679 26.1891 134.363 25.2516 135.727 27.0859C136 27.412 136.614 29.3278 134.158 29.8577V29.8577Z" stroke="#04984A" stroke-width="0.26486"/>
<path d="M136.393 26.7338C133.931 23.4002 130.237 25.7814 129.766 26.4408C127.992 28.9685 129.766 30.7635 130.418 31.2031C131.758 32.1556 134.293 32.1189 134.945 31.7892C138.204 30.1407 136.683 27.1002 136.393 26.7338Z" stroke="#04984A" stroke-width="0.26486"/>
<path d="M133.296 40L134 38.9259C133.179 36 128.955 31.6667 128.33 31L127 32.7778C127.665 33.1852 132.866 36.4074 133.296 40Z" fill="#04984A"/>
<path d="M133.296 40L134 38.9259C133.179 36 128.955 31.6667 128.33 31L127 32.7778C127.665 33.1852 132.866 36.4074 133.296 40V40Z" stroke="#04984A" stroke-width="0.26486"/>
<path d="M173 91.9273L172.781 87.8545L169.383 87.9636C173.256 83.5273 168.762 80.2909 168.14 79.6364C171.063 76.6182 170.369 74.4727 170.296 74.0364C169.529 68.5091 164.889 59.1273 164.706 58.6545C161.966 52.2182 154.95 43.9273 154.658 43.4909C149.725 36.9818 140.152 30 140.152 30L138.837 31.4182C138.837 31.4182 150.273 41.2727 150.858 42.0364L148.3 43.8545C147.277 39.3455 144.098 39.6364 143.331 39.4545C142.235 33.8909 138.947 34.0364 138.179 34.1818C134.781 34.8727 134.891 37.6 135.074 38.2545C135.622 40.4 138.399 41.1636 139.531 41.1636L139.495 39.1273C136.572 39.0545 136.133 37.7818 136.097 37.3455C135.914 35.2364 139.531 35.9273 140.262 36.3273C142.893 37.7091 142.6 41.1273 142.418 42.3636C146.291 40.8 147.825 43.6 147.825 44.4L143.148 48.1091L144.391 49.6727L152.173 43.4909L154.329 46.2909L146.4 51.7455L147.497 53.4182L155.718 47.9273L159.006 52.8364C154.402 51.3455 151.918 53.5636 151.589 53.9636C148.775 57.4909 151.735 60.2182 152.758 60.9455L153.416 59.0545C151.187 58.2909 151.406 56.6182 151.479 56.0727C151.918 53.3455 155.754 53.8909 156.448 53.9636C158.75 54.1818 161.564 57.3455 162.294 58.1091L155.718 61.0545L155.864 63.8545C157.873 64.7273 160.066 67.2364 161.125 68.2545C157.8 68.5455 156.485 69.6 155.644 70.1091L156.083 70.9818C159.262 68.6909 161.819 70.7273 162.587 71.2364L163.5 67.9273C162.806 66.4727 158.969 63.1273 158.421 62.5455L163.135 60.2545C165.108 63.3818 168.25 73.2 168.36 73.7818C169.639 80.5818 165.875 79.6 165.364 79.4545C163.866 79.0545 164.341 75.8182 164.45 74.9091L161.892 74.8364C161.637 78.6182 163.391 79.7818 165.108 80.6182C162.441 83.1636 163.975 85.7455 164.56 86.3636L166.569 84.9818C165.473 83.8545 165.583 83.0182 165.583 82.5455C165.619 80.4727 167.556 81.5636 167.958 81.7455C169.565 82.5818 169.529 84.9091 169.456 85.3455C168.981 88.1091 166.423 88.0727 165.948 88.0727C165.437 88.0727 161.125 88.1455 161.125 88.1455V90.3636L170.808 90V92" fill="#04984A"/>
<path d="M173 91.9273L172.781 87.8545L169.383 87.9636C173.256 83.5273 168.762 80.2909 168.14 79.6364C171.063 76.6182 170.369 74.4727 170.296 74.0364C169.529 68.5091 164.889 59.1273 164.706 58.6545C161.966 52.2182 154.95 43.9273 154.658 43.4909C149.725 36.9818 140.152 30 140.152 30L138.837 31.4182C138.837 31.4182 150.273 41.2727 150.858 42.0364L148.3 43.8545C147.277 39.3455 144.098 39.6364 143.331 39.4545C142.235 33.8909 138.947 34.0364 138.179 34.1818C134.781 34.8727 134.891 37.6 135.074 38.2545C135.622 40.4 138.399 41.1636 139.531 41.1636L139.495 39.1273C136.572 39.0545 136.133 37.7818 136.097 37.3455C135.914 35.2364 139.531 35.9273 140.262 36.3273C142.893 37.7091 142.6 41.1273 142.418 42.3636C146.291 40.8 147.825 43.6 147.825 44.4L143.148 48.1091L144.391 49.6727L152.173 43.4909L154.329 46.2909L146.4 51.7455L147.497 53.4182L155.718 47.9273L159.006 52.8364C154.402 51.3455 151.918 53.5636 151.589 53.9636C148.775 57.4909 151.735 60.2182 152.758 60.9455L153.416 59.0545C151.187 58.2909 151.406 56.6182 151.479 56.0727C151.918 53.3455 155.754 53.8909 156.448 53.9636C158.75 54.1818 161.564 57.3455 162.294 58.1091L155.718 61.0545L155.864 63.8545C157.873 64.7273 160.066 67.2364 161.125 68.2545C157.8 68.5455 156.485 69.6 155.644 70.1091L156.083 70.9818C159.262 68.6909 161.819 70.7273 162.587 71.2364L163.5 67.9273C162.806 66.4727 158.969 63.1273 158.421 62.5455L163.135 60.2545C165.108 63.3818 168.25 73.2 168.36 73.7818C169.639 80.5818 165.875 79.6 165.364 79.4545C163.866 79.0545 164.341 75.8182 164.45 74.9091L161.892 74.8364C161.637 78.6182 163.391 79.7818 165.108 80.6182C162.441 83.1636 163.975 85.7455 164.56 86.3636L166.569 84.9818C165.473 83.8545 165.583 83.0182 165.583 82.5455C165.619 80.4727 167.556 81.5636 167.958 81.7455C169.565 82.5818 169.529 84.9091 169.456 85.3455C168.981 88.1091 166.423 88.0727 165.948 88.0727C165.437 88.0727 161.125 88.1455 161.125 88.1455V90.3636L170.808 90V92L173 91.9273Z" stroke="#04984A" stroke-width="0.26486"/>
<path d="M131.166 152.431L130.004 150.882C116.707 160.392 98.543 161.617 97.5621 161.761C84.5201 163.346 70.8241 158.663 70.0248 158.375C59.8891 155.205 51.3518 148.684 50.7342 148L49.499 149.261L50.4072 150.341C50.1529 150.702 50.1529 151.566 50.8795 151.782C51.5698 151.999 53.6042 154.052 53.7132 154.664C54.1491 157.042 51.8967 157.366 51.3155 157.474C50.7342 157.618 48.5908 157.366 49.281 154.844L48.0095 154.7C47.6826 163.31 55.8566 158.122 58.9445 159.455C61.0516 160.428 60.6883 162.409 60.5067 162.841L58.5449 166.084L60.87 167.092L64.7571 158.555C71.369 161.653 79.0707 162.517 80.2696 162.733L80.1243 163.67L67.6635 163.418L67.5545 165.867C74.7476 166.084 78.7801 171.775 79.0707 172.28L80.8508 172.532L82.304 163.238C89.4245 164.354 97.4895 163.742 98.543 163.598L98.652 164.318C98.652 164.318 87.9713 167.38 86.4092 167.849L87.5717 169.722C95.0918 168.461 98.7973 172.388 99.3786 173L101.558 172.748L101.086 165.903C102.975 165.039 105.918 165.255 106.245 165.543C106.572 165.831 108.279 167.597 103.847 167.921L104.683 169.902C109.187 168.677 107.989 165.831 107.625 165.363C106.063 163.49 102.176 163.886 101.195 163.886V163.274C105.881 162.769 108.824 161.761 110.205 161.437L112.784 170.659L114.927 170.01L112.384 161.004C118.56 159.455 125.935 155.493 127.352 154.664L127.679 155.277L117.579 163.058L119.614 164.571C122.992 161.04 132.038 162.193 133.164 162.409L134 161.653L129.205 153.728M61.6329 160.572C60.325 159.852 60.7246 155.781 54.7304 156.646L54.6214 153.512C54.6214 153.512 61.4512 157.222 63.0134 157.69L61.6329 160.572ZM79.0707 169.758C79.0707 169.758 76.6367 166.84 74.4206 166.012H79.7246L79.0707 169.758ZM93.6749 167.993L98.8336 166.372L99.1606 171.055C98.3614 170.622 95.7094 168.245 93.6749 167.993ZM130.549 160.428C130.549 160.428 126.589 160.032 124.736 160.392L128.405 157.078L130.549 160.428Z" fill="#04984A"/>
<path d="M131 160C131 160 126.912 159.645 125 159.968L128.788 157L131 160Z" stroke="#04984A" stroke-width="0.26486"/>
<path d="M94 167.731L98.702 166L99 171C98.2715 170.538 95.8543 168 94 167.731Z" stroke="#04984A" stroke-width="0.26486"/>
<path d="M78.3836 170C78.3836 170 76.089 166.885 74 166H79L78.3836 170Z" stroke="#04984A" stroke-width="0.26486"/>
<path d="M61.684 161C60.4372 160.286 60.8182 156.25 55.1039 157.107L55 154C55 154 61.5108 157.679 63 158.143L61.684 161Z" stroke="#04984A" stroke-width="0.26486"/>
<path d="M131.166 152.431L130.004 150.882C116.707 160.392 98.543 161.617 97.5621 161.761C84.5201 163.346 70.8241 158.663 70.0248 158.375C59.8891 155.205 51.3518 148.684 50.7342 148L49.499 149.261L50.4072 150.341C50.1529 150.702 50.1529 151.566 50.8795 151.782C51.5698 151.999 53.6042 154.052 53.7132 154.664C54.1491 157.042 51.8967 157.366 51.3155 157.474C50.7342 157.618 48.5908 157.366 49.281 154.844L48.0095 154.7C47.6826 163.31 55.8566 158.122 58.9445 159.455C61.0516 160.428 60.6883 162.409 60.5067 162.841L58.5449 166.084L60.87 167.092L64.7571 158.555C71.369 161.653 79.0707 162.517 80.2696 162.733L80.1243 163.67L67.6635 163.418L67.5545 165.867C74.7476 166.084 78.7801 171.775 79.0707 172.28L80.8508 172.532L82.304 163.238C89.4245 164.354 97.4895 163.742 98.543 163.598L98.652 164.318C98.652 164.318 87.9713 167.38 86.4092 167.849L87.5717 169.722C95.0918 168.461 98.7973 172.388 99.3786 173L101.558 172.748L101.086 165.903C102.975 165.039 105.918 165.255 106.245 165.543C106.572 165.831 108.279 167.597 103.847 167.921L104.683 169.902C109.187 168.677 107.989 165.831 107.625 165.363C106.063 163.49 102.176 163.886 101.195 163.886V163.274C105.881 162.769 108.824 161.761 110.205 161.437L112.784 170.659L114.927 170.01L112.384 161.004C118.56 159.455 125.935 155.493 127.352 154.664L127.679 155.277L117.579 163.058L119.614 164.571C122.992 161.04 132.038 162.193 133.164 162.409L134 161.653L129.205 153.728L131.166 152.431Z" stroke="#04984A" stroke-width="0.26486"/>
<path d="M71.2642 169L71 170.326C72.1698 170.421 73.8302 171.558 74.3962 172L75 170.895C73.6415 169.442 71.9057 169.158 71.2642 169Z" fill="#04984A"/>
<path d="M71.2642 169L71 170.326C72.1698 170.421 73.8302 171.558 74.3962 172L75 170.895C73.6415 169.442 71.9057 169.158 71.2642 169Z" stroke="#04984A" stroke-width="0.26486"/>
<path d="M125 163.915L125.367 165C126.284 164.355 128.963 164.091 128.963 164.091L129 163.065C127.716 162.713 125 163.915 125 163.915Z" fill="#04984A"/>
<path d="M125 163.915L125.367 165C126.284 164.355 128.963 164.091 128.963 164.091L129 163.065C127.716 162.713 125 163.915 125 163.915V163.915Z" stroke="#04984A" stroke-width="0.26486"/>
<path d="M34.3742 144.362L33.1661 139.411L37.6227 136.928L32.4021 136.582L31.4369 131.605L29.5929 136.271L24.4324 135.796L28.4147 139.088L26.1795 143.773L30.6054 140.997" fill="#EC2227"/>
<path d="M24.4324 135.796L28.4147 139.088L26.1795 143.773L30.6054 140.997L34.3742 144.362L33.1661 139.411L37.6227 136.928L32.4021 136.582L31.4369 131.605L29.5929 136.271L24.4324 135.796Z" stroke="#EC2227" stroke-width="0.180852"/>
<path d="M22.2525 121.315L21.082 116.287L25.6422 113.789L20.526 113.443L19.6 108.369L17.6162 113.108L12.5333 112.511L16.3778 115.854L14.2597 120.383L18.5488 117.862" fill="#EC2227"/>
<path d="M22.2525 121.315L21.082 116.287L25.6422 113.789L20.526 113.443L19.6 108.369L17.6162 113.108L12.5333 112.511L16.3778 115.854L14.2597 120.383L18.5488 117.862L22.2525 121.315Z" stroke="#EC2227" stroke-width="0.180842"/>
<path d="M149.626 144.362L150.834 139.411L146.377 136.928L151.598 136.582L152.563 131.605L154.407 136.271L159.568 135.796L155.585 139.088L157.82 143.772L153.394 140.997" fill="#EC2227"/>
<path d="M155.585 139.088L157.82 143.772L153.394 140.997L149.626 144.362L150.834 139.411L146.377 136.928L151.598 136.582L152.563 131.605L154.407 136.271L159.568 135.796L155.585 139.088Z" stroke="#EC2227" stroke-width="0.180852"/>
<path d="M161.748 121.315L162.918 116.287L158.358 113.789L163.474 113.443L164.4 108.369L166.384 113.108L171.467 112.511L167.622 115.854L169.74 120.383L165.451 117.862" fill="#EC2227"/>
<path d="M162.918 116.287L158.358 113.789L163.474 113.443L164.4 108.369L166.384 113.108L171.467 112.511L167.622 115.854L169.74 120.383L165.451 117.862L161.748 121.315L162.918 116.287Z" stroke="#EC2227" stroke-width="0.180842"/>
<path d="M93 155C127.242 155 155 127.242 155 93C155 58.7583 127.242 31 93 31C58.7583 31 31 58.7583 31 93C31 127.242 58.7583 155 93 155Z" fill="#EC2227"/>
<path d="M83.6885 119.318C83.653 118.998 83.4751 119.425 83.4395 119.532C83.4039 119.639 83.3684 119.996 83.1905 120.067C82.9415 120.174 83.0482 119.853 83.0482 119.711C83.0838 119.497 83.1549 119.39 82.8703 119.318C82.7636 119.425 82.7992 119.568 82.6924 119.711C82.5502 119.925 82.479 119.853 82.5857 120.067C82.6569 120.174 82.8347 120.317 82.9059 120.424C83.0482 120.638 83.0838 120.852 83.1905 121.066C83.3684 121.493 83.4395 121.779 83.4395 122.278C83.4395 122.563 83.4039 122.884 83.4395 123.169C83.2972 123.169 83.1549 122.813 83.0838 122.777C82.9059 122.777 82.977 123.098 82.9059 123.241C82.7992 123.348 82.7992 123.454 82.6569 123.526C82.3723 123.74 82.5146 123.704 82.0165 123.526C81.8742 123.454 81.9098 123.348 81.9454 123.205C81.981 122.991 81.9098 122.991 81.8031 122.848C81.7319 122.741 81.5896 122.527 81.5896 122.42C81.5896 122.242 81.8031 122.1 81.6964 121.886C81.5896 121.422 81.1983 122.028 81.1272 122.242C81.1272 122.314 81.056 122.527 81.0916 122.599C81.1628 122.813 81.3406 122.741 81.4473 122.884C81.5541 122.991 81.5896 123.134 81.5541 123.276C81.4473 123.597 80.8426 123.668 80.6647 123.454C80.558 123.348 80.558 123.205 80.5936 123.098C80.6291 123.027 80.7003 122.955 80.7714 122.92C80.807 122.777 80.7714 122.563 80.807 122.42C80.8426 122.171 80.9849 121.779 80.9493 121.458C80.9137 121.244 80.8782 121.351 80.807 121.493C80.6647 121.672 80.7003 122.028 80.4513 121.993C80.309 121.957 80.2378 121.779 80.0955 121.743C79.9532 121.672 79.8109 121.707 79.6686 121.707C79.4552 121.707 78.9572 121.814 78.9572 121.529C78.9572 121.386 79.0994 121.351 79.135 121.208C79.135 121.137 79.135 121.066 79.135 120.959C79.2062 120.709 79.2773 120.816 79.4196 120.673C79.7754 120.388 79.5263 119.354 79.2062 119.818C79.0283 120.067 78.9572 121.03 78.4947 120.959C78.388 120.959 78.7081 120.246 78.7081 120.174C78.7437 119.889 78.7437 119.532 78.6014 119.283C78.4235 118.962 78.6014 118.677 78.4235 118.356C78.2812 118.071 77.9611 117.999 77.8188 118.284C77.7476 118.427 77.8544 118.57 77.7476 118.712C77.6409 118.855 77.5342 118.891 77.5698 119.14C77.6409 119.39 77.9611 119.532 77.9966 119.818C78.1034 120.21 77.7121 120.21 77.8544 120.638C77.9611 120.923 78.1389 121.137 78.1745 121.386C78.2457 121.6 78.2457 122.171 78.0322 122.278C77.6765 122.492 77.7121 121.814 77.5342 121.707C77.1073 121.422 77.1784 122.1 77.2496 122.314C77.3919 122.599 77.5342 122.813 77.5342 123.134C77.5342 123.419 77.463 123.633 77.4986 123.882C77.5698 124.132 77.6765 124.382 77.3919 124.524C77.2496 124.631 77.1429 124.667 77.0361 124.774C76.9294 124.916 76.8583 124.952 76.716 124.988C76.1468 125.13 76.2535 124.881 76.1468 124.524C76.1112 124.346 75.8266 124.239 75.9333 123.954C75.8266 123.882 75.6132 123.811 75.6132 123.597C75.6132 123.383 75.7199 123.49 75.8266 123.383C76.0756 123.241 76.3602 123.027 76.4314 122.706C76.467 122.599 76.4314 122.349 76.3958 122.207C76.3602 121.957 76.2891 121.957 76.1824 121.779C76.0401 121.6 76.0401 121.386 75.9689 121.208C75.9689 121.101 75.9333 120.638 75.791 120.602C75.3642 120.388 75.4353 121.208 75.542 121.458C75.6488 121.672 76.0045 121.886 75.8978 122.135C75.8266 122.278 75.6487 122.349 75.5776 122.456C75.4709 122.634 75.4709 122.848 75.3286 122.991C74.9373 123.561 75.1151 122.207 75.0796 122.064C75.0084 121.672 74.6882 121.743 74.4036 121.458C74.2258 121.244 74.2258 121.137 74.4036 120.923C74.4748 120.852 74.8305 120.923 74.8661 120.78C74.8661 120.709 74.4392 120.709 74.4392 120.673C74.4036 120.602 74.4036 120.566 74.4036 120.459C74.3681 120.174 74.6171 119.818 74.5459 119.532C74.5104 119.354 73.9412 118.962 73.7633 119.176C73.621 119.318 74.1902 119.711 74.0835 120.032C73.9768 120.352 73.7277 120.281 73.5143 120.139C73.0163 119.925 73.3008 119.532 72.9451 119.318C72.7317 119.532 72.874 119.96 72.8384 120.21C72.8384 120.495 72.7672 120.709 72.6961 120.923C72.5894 121.244 72.5894 121.422 72.874 121.565C73.123 121.743 73.3008 121.85 73.3364 122.207C73.372 122.492 73.2653 122.741 73.0874 122.991C72.9095 123.205 72.8384 123.454 72.6961 123.668C72.6249 123.74 72.4826 123.847 72.3759 123.811C72.198 123.74 72.3403 123.597 72.3403 123.526C72.3759 123.169 72.4471 123.027 72.2692 122.706C72.0202 122.207 72.2336 121.672 72.0557 121.208C71.949 120.852 71.7712 120.745 71.5933 120.424C71.3087 119.925 71.7712 119.96 71.9846 119.711C72.0913 119.568 72.2692 119.354 72.2336 119.212C72.198 118.998 71.7 118.819 71.7 118.605C71.7 118.391 71.949 118.249 72.0557 118.071C72.198 117.75 72.3759 117.785 71.9846 117.429C71.8067 117.179 72.0557 116.965 71.9846 116.751C71.9135 116.395 71.4154 116.252 71.2375 115.931C71.1664 115.753 70.9529 115.468 71.0241 115.254C71.1308 114.969 71.4154 114.969 71.4154 114.648C71.3798 114.362 71.0241 114.22 70.9885 113.899C70.9529 113.614 71.202 113.328 71.2731 113.043C71.3443 112.687 71.3087 112.366 71.0952 112.009C70.9885 111.867 70.5972 111.617 70.5972 111.439C70.6328 111.26 70.8462 111.26 70.8818 111.118C71.0241 110.975 70.9529 110.939 70.8818 110.761C70.8106 110.583 70.8106 110.44 70.7039 110.262C70.5261 109.941 70.7395 109.87 70.8107 109.478C70.8462 109.335 70.9529 109.192 70.7395 109.014C70.6328 108.907 70.3482 108.836 70.277 108.693C70.1703 108.444 70.5616 108.301 70.7039 108.194C70.8818 108.051 71.202 107.837 71.2731 107.588C71.3087 107.338 70.9529 107.053 70.7751 106.875C70.7039 106.768 70.4549 106.697 70.3838 106.59C70.3126 106.447 70.3838 106.376 70.3838 106.233C70.3838 105.983 70.1347 105.769 69.9924 105.484C69.9213 105.235 69.6723 104.771 69.7434 104.522C69.779 104.379 69.8501 104.415 69.9213 104.308C69.9924 104.201 69.9924 104.129 69.9924 103.987C70.028 103.701 69.9924 103.452 70.1703 103.167C70.3126 102.881 70.4549 102.632 70.7751 102.56C71.0241 102.525 71.451 102.596 71.451 102.061C71.451 101.847 71.3087 101.99 71.1308 101.883C70.9174 101.74 70.8462 101.384 70.6328 101.241C70.3838 101.099 70.4193 101.313 70.2059 101.42C69.8857 101.562 69.8146 101.206 69.6367 101.027C69.2454 100.706 69.2454 100.956 69.2454 101.313C69.2454 101.74 69.0675 101.669 68.8541 101.384C68.7118 101.17 68.5339 100.992 68.2849 100.92C67.9647 100.778 67.7157 100.706 67.4667 100.457C67.3955 100.35 67.3244 99.8864 67.4311 99.7794C67.6801 99.5298 68.0003 100.1 68.2493 100.065C68.8541 99.9933 68.0359 99.4941 67.9647 99.3515C67.8224 98.995 68.2493 99.0306 68.4272 98.8524C68.5695 98.7097 68.4983 98.7097 68.4983 98.5671C68.605 98.3532 68.605 98.3888 68.8185 98.2819C69.0319 98.1036 69.3165 97.7827 69.3521 97.4975C69.3877 97.2835 69.281 96.82 68.9964 97.0696C68.8541 97.2122 68.8896 97.4261 68.6406 97.4975C68.4627 97.5688 68.2137 97.5331 68.0359 97.4975C67.3244 97.3192 68.0359 97.1766 67.8936 96.82C67.8224 96.6417 67.3955 96.6061 67.2888 96.4635C67.1821 96.3565 67.1821 96.1782 67.1821 95.9999C67.0754 95.8573 66.8263 95.6434 66.5773 95.679C66.3994 95.7147 66.3283 95.9643 66.2216 95.8573C66.186 95.7504 66.2571 95.5721 66.3283 95.4651C66.4706 95.2512 66.3283 95.0372 66.1504 94.8946C65.7947 94.7163 66.1504 95.8573 65.7591 95.8217C65.2966 95.7503 65.5457 94.9659 65.6524 94.752C65.7235 94.5737 65.7947 94.3955 65.9014 94.2528C66.0437 94.1102 66.2571 94.0389 66.435 93.8963C66.5417 93.7537 66.6129 93.5397 66.5417 93.3971C66.3994 93.1475 65.9014 93.2901 65.9014 92.9692C66.186 92.684 66.6485 93.0762 66.7908 92.6483C66.8619 92.3274 66.5773 92.1492 66.3994 91.9352C65.937 91.4004 66.5062 91.5787 66.8975 91.7213C67.1821 91.7926 67.7157 91.757 68.0003 91.6857C68.3916 91.5787 68.4628 91.2578 68.605 90.9369C68.6762 90.723 69.0319 90.3664 68.9964 90.1881C68.8541 90.1168 68.7473 89.9385 68.7473 89.8316C68.7473 89.689 68.8541 89.6533 68.8896 89.5463C68.9608 89.2968 68.8185 89.0472 68.7829 88.8689C68.7118 88.6906 68.7473 88.6906 68.605 88.548C68.4983 88.441 68.0359 88.2984 68.0003 88.1914C67.8936 87.9062 68.356 88.0488 68.5339 88.0132C69.3877 87.9419 69.1031 86.7296 69.0675 86.2661C69.0319 85.8025 68.7473 85.3034 68.2849 85.2321C68.107 85.1964 67.9291 85.1964 67.7513 85.2321C67.4667 85.2677 67.1821 85.1964 66.8619 85.1964C66.4706 85.1607 66.4706 85.0894 66.2216 84.9112C65.6524 84.5546 64.9409 84.8042 64.265 84.5903C63.7669 84.412 63.2333 84.2337 62.8776 83.8415C62.3084 83.271 61.419 82.9501 60.8854 82.2014C60.7431 82.0231 60.5653 81.8805 60.423 81.7378C60.2807 81.5952 60.3162 81.4526 60.1739 81.2743C59.9961 81.096 59.8538 80.8465 59.8182 80.6325C59.8182 80.3116 59.6403 80.169 59.3913 79.9907C59.249 79.8838 59 79.7055 59 79.4916C59 79.2063 59.2846 79.2063 59.4625 79.0637C59.7115 78.9211 59.8182 78.7428 59.9605 78.4932C60.1739 78.1723 60.2807 77.8514 60.5297 77.5662C60.7076 77.3522 60.8854 77.2096 61.0989 77.067C61.3835 76.9244 61.8104 77.067 61.8104 76.6391C61.7748 76.3182 61.4546 76.2113 61.2412 75.9973C60.7431 75.6051 61.5258 75.3199 61.9171 75.3556C62.3084 75.3556 62.4507 75.7478 62.7353 75.9617C63.091 76.2469 63.3756 76.5322 63.8025 76.6748C64.0515 76.7105 64.2294 76.6391 64.1227 76.3539C64.016 76.1043 63.5535 75.9973 63.4112 75.7834C63.5535 75.6408 63.8381 75.8904 64.016 75.7834C64.265 75.6408 63.9804 75.3556 64.0515 75.2486C64.265 74.999 64.6919 75.4625 64.7986 75.4982C65.1543 75.5338 65.0476 75.1416 65.012 74.9633C64.9765 74.6068 65.1899 74.4642 65.3678 74.1789C65.5101 73.9293 65.6168 73.5015 65.5812 73.1806C65.5101 72.7171 64.9765 72.0396 65.5812 71.7187C65.7947 71.6118 66.0437 71.6474 66.2571 71.6831C66.7552 71.7187 66.7552 71.8257 66.9686 72.1822C67.3244 72.8597 67.7868 72.0396 68.0359 71.79C68.356 71.7544 68.3204 72.0396 68.5339 72.1466C68.605 72.2179 68.7118 72.2535 68.7829 72.2535C68.9608 72.2179 68.9964 71.9683 69.1031 71.897C69.4233 71.79 69.779 72.1822 70.028 72.2892C70.3482 72.4675 70.3838 72.4318 70.6684 72.2179C71.0597 71.8613 71.1308 71.9326 71.1664 72.1822C71.1664 72.3962 71.3087 72.3962 71.5933 72.4318C71.7 72.4675 71.8779 72.5031 72.0202 72.4318C72.2692 72.3962 72.4826 72.0753 72.4826 71.8613C72.4826 71.5404 72.5538 71.5404 72.7672 71.3265C72.9807 71.1126 73.123 70.7204 72.9095 70.4708C72.8028 70.3638 72.6249 70.2569 72.4826 70.2212C72.198 70.1855 71.949 70.3638 71.7 70.2568C71.5221 70.1855 71.451 69.9003 71.3443 69.7577C71.202 69.6151 71.0241 69.5437 70.9174 69.4011C70.4193 68.7593 71.5577 68.6524 71.1664 68.1532C70.9885 67.9393 70.9174 67.6897 70.7751 67.4757C70.6684 67.3331 70.3838 66.9053 70.2059 67.1192C70.0636 67.2618 70.5261 67.6897 70.0992 67.6184C69.9213 67.6184 69.8501 67.4401 69.7434 67.3331C69.5656 67.1905 69.6011 67.1905 69.4233 67.2975C69.1387 67.4757 68.9252 67.8323 68.4983 67.6897C68.2137 67.5827 68.0359 67.2262 67.7513 67.0835C67.4311 66.9053 67.0398 67.0479 66.7552 66.9053C66.435 66.727 66.5773 66.4774 66.4706 66.2991C66.3283 65.9782 65.9726 66.0852 65.7235 65.9426C65.5457 65.8356 65.5457 65.4434 65.8303 65.5147C65.9014 65.2651 65.6168 64.9086 65.4745 64.6946C65.2611 64.3737 64.7986 64.552 64.4784 64.2668C64.1227 64.0528 63.9448 63.6606 63.7669 63.3041C63.5891 63.0545 63.4824 62.6266 63.2333 62.484C62.9132 62.3414 62.9487 62.6979 62.7353 62.8049C62.5574 62.8762 62.4863 62.7692 62.3796 62.7692C62.2373 62.8049 62.1305 62.8762 62.0594 62.9119C61.8104 62.9119 61.4546 62.591 61.2767 62.4127C61.0633 62.1988 61.0277 62.0561 60.9922 61.7709C60.9566 61.557 60.921 61.343 60.8854 61.0578C60.8143 60.8082 61.3479 60.7726 61.3123 60.5586C61.3123 60.309 60.8854 60.3803 60.9566 60.0238C60.9922 59.8812 61.1345 59.8812 61.2056 59.7742C61.2412 59.6672 61.2768 59.5959 61.3123 59.489C61.419 59.382 61.7392 59.275 61.8459 59.2037C61.9882 59.0968 62.2017 59.0254 62.344 58.8828C62.5218 58.7046 62.6641 58.5619 62.4151 58.455L62.2373 58.4193C62.0238 58.348 61.5258 58.2054 61.6681 57.8488C61.7748 57.6705 62.095 57.7419 62.3084 57.6349C62.5218 57.5279 62.4151 57.421 62.4507 57.2783C62.5574 57.1001 62.6641 57.1001 62.8776 56.9931C63.1266 56.8861 63.3756 56.6009 63.6602 56.6009C63.8025 56.6009 64.2294 56.8148 64.3361 56.6009C64.4073 56.5296 64.3006 56.387 64.3006 56.3157C64.3361 56.1374 64.3361 56.1374 64.4429 55.9948C64.514 55.8878 64.514 55.8165 64.5496 55.7095C64.6563 55.4956 64.8698 55.353 65.0476 55.1747C65.1899 55.0321 65.3678 54.7112 65.5457 54.6399C66.0793 54.4616 67.5734 55.2816 67.2888 54.212C67.2532 53.9981 66.7196 53.8554 66.6485 53.6415C66.5773 53.3563 66.9686 53.4632 67.1465 53.4276C67.2176 52.9641 66.4706 52.7858 66.1504 52.6788C65.7591 52.6075 65.0832 52.9641 64.7275 52.6075C64.3717 52.2866 64.763 51.3952 65.012 51.003C65.1899 50.6821 65.7591 49.6125 66.1504 50.1473C66.3283 50.3969 66.186 50.7534 66.186 51.003C66.186 51.3952 66.3994 51.5378 66.7552 51.7518C67.1465 51.9301 67.2176 52.0014 67.3955 52.3579C67.5022 52.5362 67.5734 52.8571 67.8224 52.8571C69.4944 52.7858 69.3165 53.5345 69.1742 53.5702C68.8896 53.6772 70.3126 54.5685 70.3838 55.2816C70.3838 55.3886 70.4905 55.5312 70.5972 55.6025C70.7395 55.7452 70.7395 55.6739 70.8818 55.7452C71.2375 55.9234 71.4154 56.2087 71.5933 56.5652C71.9135 56.7079 72.2336 56.173 72.3048 56.0304C72.5894 55.6739 72.5894 56.3513 72.7672 56.4939C72.9451 56.6009 73.4076 56.7079 73.5499 56.4583C73.6922 56.1374 73.0518 56.0304 73.1585 55.6739C73.4787 55.3886 74.2258 56.4583 74.7238 56.0661C75.1151 55.7452 74.0479 55.1747 73.7277 54.9964C73.123 54.6042 72.5894 54.2833 73.2297 53.6059C73.5143 53.2493 73.4787 53.4276 73.7277 53.7128C73.9412 54.0337 74.2258 54.1763 74.5459 54.1763C75.1863 54.1407 75.4709 53.9624 75.2219 54.6755C75.1151 54.9608 75.2219 55.1034 75.4353 55.3173C75.6132 55.5669 75.3642 55.6025 75.2219 55.7808C75.044 55.9948 75.3642 56.28 75.5776 56.3513C75.6843 56.4226 75.8266 56.4226 75.8622 56.5652C75.9333 56.6722 75.8978 56.8505 75.8978 56.9574C75.8978 57.2427 75.6487 57.6349 75.8622 57.8845C76.0401 58.0271 76.0401 58.2054 76.2535 58.2767C76.4314 58.348 76.6804 58.348 76.8938 58.3837C77.0361 58.4193 77.1073 58.5263 77.214 58.5976C77.3563 58.7402 77.4275 58.9185 77.5698 59.0968C77.6409 59.1681 77.7476 59.2037 77.8188 59.3107C77.9255 59.4533 77.9966 59.5959 78.1389 59.6672C78.3524 59.7742 78.4947 59.8812 78.7437 59.9168C78.9572 59.9881 79.2773 59.9525 79.5619 59.9525C79.7398 59.9525 79.9532 59.9168 80.0955 60.0595C80.2734 60.2021 80.1667 60.5586 80.4513 60.5943C80.7359 60.5943 80.6647 60.523 80.8426 60.3447C80.9493 60.2377 81.3051 60.309 81.4473 60.416C81.5896 60.523 81.7319 60.9152 81.8742 60.5586C81.9454 60.4517 82.0165 60.309 81.981 60.1664C81.981 60.0238 81.8742 59.9525 81.8387 59.8455C81.7675 59.382 82.3723 59.489 82.6213 59.5246C82.977 59.5603 83.1549 59.2037 82.977 58.9185C82.7992 58.6689 81.6252 58.455 82.1233 57.9558C82.23 57.8845 82.3367 57.8132 82.479 57.7419C82.6213 57.7062 82.8347 57.7419 82.8347 57.5992C82.9059 57.3853 82.728 57.0644 83.0126 56.9931C83.0838 56.9931 83.1905 56.9931 83.2972 56.9574C83.3684 56.9218 83.4039 56.8861 83.4751 56.9574C83.6174 57.0288 83.653 57.1714 83.7953 57.2783C83.8664 57.421 83.9731 57.5279 84.0798 57.6705C84.1866 57.8132 84.2933 57.8845 84.4356 57.9914C84.5423 58.0628 84.6135 58.241 84.649 58.348C84.6846 58.5976 84.8269 58.8472 84.8269 59.0968C84.8981 59.4533 84.649 59.6672 84.5423 59.9881C84.5067 60.0238 84.5423 60.2377 84.5779 60.309C84.6135 60.3803 84.6846 60.309 84.7558 60.309C85.0048 60.309 85.1826 60.0595 85.3961 60.309C85.5384 60.416 85.7518 60.5586 85.7518 60.7369C85.7518 60.9865 85.6451 61.0935 85.4672 61.2361C85.2182 61.45 85.4672 61.6283 85.3961 61.8779C85.3249 62.0918 85.2182 62.3057 85.1115 62.5197C85.0403 62.6979 84.9336 62.9119 85.0048 63.0901C85.0403 63.3041 85.2182 63.518 85.2538 63.7319C85.3249 63.9815 85.3249 64.1242 85.2182 64.3381C85.1115 64.552 84.9692 64.7659 84.9692 64.9799C84.9336 65.1938 85.1115 65.3364 85.2538 65.4434C85.3961 65.479 85.4317 65.586 85.4672 65.693C85.574 65.8713 85.574 66.0852 85.6095 66.2991C85.6451 66.834 85.6807 67.3688 85.6095 67.9036C85.574 68.2245 85.5028 68.5097 85.3961 68.8306C85.3605 68.9733 85.2894 69.1159 85.1826 69.1872C85.1115 69.2942 85.0048 69.3655 84.8981 69.4724C84.8269 69.5437 84.8625 69.6507 84.8269 69.7577C84.8269 70.0429 85.0403 70.3995 84.9336 70.6491C84.8981 70.756 84.649 71.2195 84.8269 71.2552C84.8981 71.2552 85.0403 71.1482 85.0759 71.0769C85.1826 71.0056 85.2894 70.97 85.3961 70.9343C85.6095 70.863 85.7163 70.756 85.9297 70.863C86.1432 70.9343 86.3566 71.0769 86.6056 71.1482C86.9258 71.2552 87.246 71.3622 87.6017 71.5404C87.744 71.6118 87.9574 71.6474 88.0642 71.7544C88.1353 71.8257 88.1709 71.9326 88.242 72.0396C88.3488 72.1109 88.4911 72.1822 88.5622 72.2892C88.7756 72.4318 89.0602 72.4318 89.3093 72.4675C89.5227 72.5031 89.8073 72.5388 90.0207 72.6101C90.3053 72.6814 90.6255 72.7171 90.9101 72.7884C91.1947 72.8597 91.4081 73.038 91.6927 73.1449C91.9062 73.2162 92.0129 73.3589 92.1908 73.4658C92.4042 73.5728 92.76 73.5728 92.9734 73.5015C93.3292 73.4658 93.5426 73.5728 93.8628 73.5371C94.1118 73.5015 94.2185 73.4658 94.3964 73.4302C94.6098 73.3945 94.8588 73.3945 95.0367 73.4302C95.3213 73.4302 95.5348 73.4658 95.7838 73.4302C95.9972 73.3945 96.1395 73.3589 96.3174 73.3232C96.4953 73.3232 96.6731 73.3589 96.8154 73.4658C96.9933 73.6798 97.349 73.858 97.5625 73.6084C97.7048 73.4658 97.6692 73.2519 97.9182 73.2162C98.1317 73.1449 98.3451 73.2875 98.4163 73.4302C98.9499 74.1433 100.444 74.072 101.049 73.5371C101.618 73.0023 102.614 73.0023 103.254 73.3589C103.503 73.4658 103.752 73.3945 103.93 73.2519C104.144 73.1449 104.286 73.0023 104.499 73.0736C104.571 73.0736 104.606 73.1093 104.677 73.1093C104.784 73.1449 104.891 73.1806 104.998 73.2519C105.104 73.3589 105.175 73.4658 105.247 73.5371C105.424 73.7511 105.567 73.8937 105.851 73.9293C106.278 73.965 106.776 73.8224 107.203 74.0363C107.559 74.2502 107.95 74.2502 108.341 74.2502C108.555 74.2859 108.804 74.3216 109.017 74.2146C109.16 74.1076 109.302 74.072 109.373 73.965C109.48 73.858 109.551 73.7511 109.622 73.7511C109.8 73.7154 109.907 73.858 109.907 74.0007C109.871 74.1789 109.871 74.1789 109.871 74.3216C109.836 74.6425 110.547 74.4998 110.761 74.3929C110.938 74.3216 111.187 74.3572 111.436 74.3216C111.65 74.2502 111.828 74.1076 112.006 74.0007C112.326 73.8224 112.895 73.9293 113.251 73.965C113.642 74.0007 114.033 74.0363 114.425 73.965C114.603 73.9293 114.78 73.965 114.958 73.9293C115.065 73.9293 115.243 73.9293 115.35 73.8937C115.421 73.858 115.492 73.8224 115.563 73.7867C115.919 73.6441 116.275 73.8937 116.559 74.1789C116.63 74.2859 116.737 74.3572 116.808 74.3929C117.022 74.4998 117.271 74.3929 117.484 74.4642C117.591 74.4998 117.733 74.6068 117.84 74.7494C117.875 74.7851 117.875 74.8564 117.911 74.9277C117.982 75.0347 118.089 75.1416 118.16 75.2129C118.373 75.3556 118.516 75.6408 118.765 75.6764C118.943 75.7121 119.049 75.7478 119.192 75.6764C119.369 75.6051 119.476 75.4982 119.69 75.4982C120.045 75.4982 120.366 75.6408 120.615 75.8904C120.721 76.033 120.864 76.2113 120.97 76.4252C121.006 76.5322 121.006 76.6748 121.077 76.8174C121.184 76.96 121.184 77.2096 121.291 77.3166C121.468 77.4949 121.753 77.1383 121.931 77.2453C121.966 77.3166 122.109 77.4949 122.144 77.6018C122.215 77.7445 122.144 77.9584 122.215 78.101C122.251 78.4576 122.144 78.7071 121.895 78.9567C121.682 79.135 121.362 79.1707 121.148 79.0637C121.006 78.9567 120.828 78.9567 120.721 78.8854C120.686 78.8498 120.615 78.8141 120.508 78.7428C120.437 78.6715 120.294 78.6358 120.188 78.5289C120.117 78.4219 120.01 78.3149 119.868 78.2436C119.725 78.1367 119.583 77.8871 119.405 77.8514C119.227 77.8158 119.085 78.0297 119.049 78.1723C119.049 78.3862 119.014 78.6358 118.943 78.8141C118.907 78.9211 118.765 78.9211 118.729 78.9924C118.587 79.242 118.943 79.6342 118.978 79.8481C119.014 80.1334 118.943 80.4186 118.907 80.7038C118.8 80.9534 118.587 81.1674 118.409 81.3813C118.231 81.6309 118.124 81.9161 118.053 82.2014C118.018 82.3796 118.018 82.5579 118.018 82.7362C118.018 83.0571 118.053 83.4493 118.16 83.7702C118.231 83.9128 118.302 84.0911 118.267 84.1981C118.267 84.3407 118.124 84.305 118.018 84.1981C117.911 84.0911 117.804 83.8772 117.698 83.7345C117.626 83.5919 117.413 83.4136 117.271 83.4136C116.808 83.4493 117.164 84.1624 117.235 84.412C117.377 84.7685 117.52 85.3747 117.022 85.5886C116.666 85.7312 116.168 85.6956 115.777 85.5886C115.67 85.553 115.278 85.4103 115.207 85.3747C115.101 85.339 114.78 85.1964 114.638 85.3034C114.425 85.553 114.887 86.0165 114.994 86.1234C115.101 86.3374 114.887 86.3017 114.709 86.2304C114.567 86.2304 114.389 86.1947 114.211 86.1591C113.855 86.1591 113.855 86.373 113.855 86.6226C113.855 87.1218 114.069 87.5853 113.891 88.0488C113.784 88.2628 113.642 88.9045 113.357 88.8689C113.251 88.8689 113.144 88.6193 113.144 88.548C113.144 88.4767 113.18 88.441 113.251 88.4054C113.286 88.2628 113.286 88.0845 113.251 87.9419C113.144 87.6566 113.037 87.5496 112.753 87.5853C112.504 87.5853 112.504 87.6923 112.361 87.8349C112.29 87.9419 112.183 87.9775 112.077 88.0132C111.757 88.0488 111.792 87.7636 111.685 87.621C111.543 87.4427 111.294 87.3714 111.116 87.6566C110.903 88.0132 111.294 88.4767 111.187 88.8689C111.116 89.0472 110.903 89.0828 110.725 89.0115C110.512 88.9045 110.44 88.6193 110.369 88.441C110.334 88.2271 110.191 87.9062 109.907 88.0132C109.729 88.0845 109.764 88.2984 109.729 88.4767C109.658 88.9759 109.622 89.5463 109.195 89.8672C109.124 89.9029 109.017 89.9385 108.946 89.9742C108.626 89.9742 108.448 89.8672 108.164 89.8316C108.021 89.7959 107.772 89.8672 107.594 89.8316C107.452 89.7959 107.31 89.689 107.203 89.6533C107.061 89.5463 106.883 89.5463 106.705 89.5107C106.527 89.4394 106.136 89.3324 105.994 89.5463C105.887 89.7603 105.994 90.0455 106.029 90.0812C106.1 90.2594 106.243 90.3308 106.314 90.4734C106.349 90.6516 106.1 90.723 106.029 90.8299C105.922 90.9369 105.816 91.1508 105.709 91.2221C105.567 91.2934 105.424 91.0795 105.282 91.0795C105.033 91.0439 104.926 91.1152 104.784 91.2934C104.677 91.4361 104.535 91.6143 104.642 91.757C104.82 91.9352 104.855 92.0422 104.748 92.2205C104.677 92.4344 104.499 92.3274 104.286 92.3631C104.037 92.3631 103.859 92.4701 103.824 92.7197C103.717 92.8979 103.824 93.0049 103.93 93.1475C104.037 93.3258 104.179 93.5041 104.144 93.7537C104.144 93.9319 103.966 94.0389 103.93 94.2172C103.895 94.3955 104.037 94.6807 103.824 94.7877C103.539 94.8946 103.29 94.7163 103.183 95.0729C103.148 95.2155 103.219 95.3938 103.254 95.5008C103.361 95.6434 103.468 95.7504 103.539 95.9286C103.61 96.2495 103.432 96.4635 103.112 96.5704C102.863 96.6061 102.614 96.7487 102.65 97.0339C102.685 97.2122 102.792 97.3548 102.97 97.4618C103.112 97.5331 103.219 97.5688 103.397 97.6401C103.575 97.7114 103.575 97.747 103.575 97.961C103.575 98.1392 103.539 98.3175 103.539 98.4958C103.503 98.781 103.681 98.9237 103.859 99.1376C104.037 99.3159 104.179 99.4941 104.286 99.7437C104.322 99.8507 104.428 99.8864 104.499 99.9933C104.571 100.1 104.499 100.279 104.535 100.421C104.535 100.564 104.571 100.564 104.677 100.635C104.748 100.706 104.855 100.778 104.82 100.885C104.748 101.099 104.571 101.027 104.642 101.313C104.642 101.42 104.642 101.455 104.677 101.526C104.748 101.633 104.748 101.847 104.891 101.954C105.353 102.418 105.14 102.917 105.211 103.523C105.282 103.808 105.282 103.987 105.282 104.236C105.318 104.557 105.318 104.949 105.496 105.199C105.602 105.377 105.745 105.377 105.887 105.449C106.207 105.556 106.42 105.306 106.456 104.985C106.492 104.878 106.456 104.771 106.42 104.664C106.385 104.593 106.314 104.522 106.278 104.45C106.136 104.343 105.994 104.308 105.922 104.165C105.851 104.022 105.78 103.737 105.816 103.63C105.851 103.345 105.851 103.095 105.851 102.846C105.851 102.632 105.851 102.026 106.171 101.954C106.385 101.954 106.456 102.418 106.527 102.525C106.669 102.739 106.847 102.917 107.025 103.095C107.132 103.238 107.239 103.452 107.417 103.595C107.559 103.701 107.808 103.701 107.772 103.844C107.737 103.951 107.559 104.094 107.488 104.201C107.274 104.593 107.843 104.985 107.986 105.306C108.057 105.449 107.879 105.556 107.95 105.663C108.021 105.734 108.057 105.769 108.092 105.841C108.164 106.055 108.128 106.304 108.128 106.554C108.128 106.697 108.092 106.839 108.092 106.982C108.092 107.16 107.986 107.552 108.27 107.552C108.448 107.588 108.591 107.303 108.733 107.196C108.768 107.124 108.982 106.91 109.089 106.875C109.266 106.839 109.302 107.124 109.444 107.196C109.587 107.303 109.551 107.267 109.587 107.124C109.622 107.089 109.658 107.053 109.658 106.982C109.693 106.91 109.622 106.839 109.693 106.768C109.764 106.661 110.049 106.732 110.191 106.732C110.405 106.732 110.689 106.625 110.867 106.59C111.294 106.376 111.65 106.055 111.97 105.627C112.077 105.52 112.148 105.413 112.184 105.27C112.219 105.092 112.326 105.056 112.397 104.914C112.504 104.771 112.504 104.629 112.504 104.45C112.468 104.094 112.219 103.88 111.97 103.666C111.863 103.559 111.757 103.452 111.65 103.345C111.543 103.131 111.543 102.846 111.543 102.632C111.543 102.418 111.721 102.026 111.579 101.847C111.543 101.776 111.472 101.705 111.401 101.669C111.294 101.598 111.152 101.598 111.081 101.455C110.903 101.277 111.152 101.313 111.294 101.277C111.436 101.241 111.579 101.17 111.721 101.063C111.863 100.956 111.792 100.742 111.792 100.564C111.792 100.457 111.757 100.314 111.899 100.35C112.077 100.35 112.148 100.564 112.29 100.599C112.468 100.671 112.788 100.671 112.931 100.635C113.286 100.564 113.535 100.136 113.82 99.9577C114.033 99.815 114.318 99.8864 114.46 99.6011L114.567 99.4585C114.709 99.2446 114.567 98.9237 114.567 98.6384C114.531 98.4601 114.674 98.2462 114.638 98.0679C114.603 97.9253 114.46 97.854 114.425 97.7114C114.389 97.4975 114.389 97.4618 114.318 97.2835C114.105 96.9626 114.105 96.5704 114.14 96.2495C114.176 95.9999 114.318 95.5721 114.638 95.679C114.78 95.7147 114.887 95.893 114.887 96.0356C114.923 96.2495 114.816 96.4991 114.958 96.6774C115.136 96.8557 115.421 96.927 115.67 96.8913C115.954 96.8557 116.061 96.6417 116.203 96.4278C116.346 96.3208 116.452 96.1069 116.666 96.0356C116.915 95.9286 117.271 95.893 117.555 95.9286C117.982 96.0356 117.982 96.3921 118.16 96.6417C118.267 96.7844 118.373 96.82 118.409 96.6774C118.445 96.5348 118.445 96.3921 118.409 96.2852C118.373 96.0713 118.409 96.0713 118.551 95.893C118.622 95.786 118.694 95.6434 118.836 95.7504C118.978 95.8573 118.871 96.0356 118.907 96.2139C118.978 96.3565 119.085 96.4991 119.085 96.6417C119.12 96.927 118.551 97.4975 119.014 97.7114C119.156 97.747 119.334 97.747 119.405 97.9253C119.547 98.1392 119.263 98.3175 119.263 98.5671C119.298 98.7454 119.405 98.8167 119.512 98.9593C119.654 99.1376 119.725 99.3159 119.796 99.5298C119.868 99.7437 119.868 99.9577 119.939 100.207C119.974 100.35 120.081 100.421 120.117 100.599C120.188 100.849 120.223 101.027 120.223 101.241C120.188 101.384 120.259 101.455 120.259 101.562C120.294 101.74 120.223 101.919 120.259 102.097C120.259 102.311 120.366 102.489 120.401 102.739C120.401 102.881 120.33 102.988 120.223 103.06C120.081 103.238 119.939 103.416 119.868 103.595C119.832 103.844 119.903 104.094 119.903 104.343C119.903 104.522 119.832 104.664 119.832 104.842C119.868 105.163 120.294 105.306 120.33 105.591C120.33 105.734 120.117 105.876 120.081 105.983C120.045 106.09 120.223 106.233 120.294 106.34C120.401 106.554 120.401 106.768 120.259 106.946C120.188 107.053 120.045 107.231 120.045 107.338C120.01 107.517 120.045 107.588 120.223 107.659C120.437 107.695 120.543 107.873 120.579 108.087C120.615 108.194 120.579 108.337 120.65 108.479C120.828 108.765 121.148 108.408 121.397 108.444C121.54 108.515 121.504 108.658 121.397 108.765C121.362 108.836 121.291 108.871 121.255 108.978C121.184 109.264 121.184 109.656 121.184 109.977C121.184 110.298 121.291 110.619 121.646 110.726C121.717 110.797 121.824 110.833 121.931 110.833C122.109 110.868 122.18 110.868 122.287 111.046C122.358 111.118 122.429 111.225 122.429 111.332C122.464 111.546 122.429 111.795 122.429 111.973C122.393 112.223 122.322 112.473 122.251 112.722C122.109 113.007 122.073 113.328 122.109 113.649C122.144 113.935 122.322 114.22 122.393 114.469C122.429 114.79 122.429 115.004 122.429 115.289C122.393 115.61 122.393 115.896 122.464 116.252C122.464 116.537 122.5 116.894 122.607 117.215C122.642 117.357 122.713 117.5 122.749 117.643C122.891 118.177 123.069 118.677 123.105 119.247C123.14 119.532 122.963 119.782 122.82 120.067C122.678 120.424 122.571 120.745 122.749 121.066C122.891 121.28 122.963 121.529 123.069 121.743C123.176 121.957 123.389 122.064 123.496 122.242C123.674 122.599 123.603 123.169 123.389 123.561C123.318 123.704 123.247 123.811 123.212 123.954C123.176 124.239 123.283 124.595 123.318 124.845C123.318 125.309 123.283 125.772 123.176 126.2C123.069 126.556 123.247 126.913 123.247 127.305C123.176 127.876 123.034 128.446 123.176 129.017C123.318 129.48 123.461 130.015 123.425 130.514C123.425 130.906 123.674 131.406 123.638 131.37C123.461 131.156 124.065 132.119 123.994 132.404C123.959 132.547 123.887 132.618 123.71 132.618C123.567 132.689 123.496 132.654 123.425 132.832C123.354 132.974 123.318 133.081 123.176 133.081C122.963 133.153 122.749 132.974 122.642 132.832C122.393 132.475 122.607 131.976 122.464 131.548C122.429 131.441 122.322 131.263 122.215 131.156C122.109 131.013 121.86 131.013 121.717 131.013C121.362 130.978 121.041 131.334 120.721 131.049C120.437 130.799 120.294 130.479 120.152 130.193C120.081 129.944 120.117 129.516 119.69 129.445C119.263 129.409 119.156 129.587 119.156 129.908C119.156 130.015 119.192 130.3 119.049 130.372C118.943 130.407 118.765 130.3 118.622 130.3C118.373 130.3 118.231 130.443 118.124 130.621C117.982 130.799 118.089 131.013 117.947 131.227C117.769 131.406 117.484 131.299 117.342 131.584C117.164 131.869 117.057 132.226 117.342 132.475C117.484 132.654 117.769 132.903 117.591 133.153C117.413 133.367 117.093 133.509 116.95 133.759C116.773 134.115 116.95 134.472 117.093 134.757C117.199 134.971 117.377 135.149 117.484 135.363C117.555 135.435 117.662 135.577 117.662 135.649C117.769 135.934 117.733 136.255 117.875 136.54C117.911 136.611 118.018 136.718 118.018 136.825C118.053 137.003 118.089 137.182 118.089 137.324C118.16 137.61 118.302 137.681 118.409 137.859C118.551 138.073 118.658 138.287 118.8 138.501C118.943 138.751 118.907 139.036 118.978 139.285C119.014 139.428 119.014 139.535 119.049 139.642C119.12 139.749 119.156 139.82 119.156 139.892C119.049 140.141 118.836 139.892 118.765 139.82C118.622 139.713 118.338 139.535 118.267 139.357C118.231 139.214 118.231 139.071 118.16 138.929C118.053 138.715 117.698 138.822 117.591 138.608C117.484 138.287 117.591 137.931 117.377 137.645C117.199 137.396 117.022 137.146 116.915 136.861C116.773 136.647 116.63 136.469 116.452 136.255C116.346 136.112 116.203 136.005 116.061 135.863C115.919 135.72 115.812 135.613 115.67 135.47C115.563 135.363 115.492 135.256 115.385 135.185C115.278 135.114 115.172 134.971 115.101 134.9C114.745 134.436 114.816 133.83 114.816 133.26C114.852 132.832 114.887 132.44 114.745 132.012C114.603 131.62 114.46 131.227 114.176 130.906C114.105 130.871 114.033 130.799 113.962 130.764C113.855 130.657 113.713 130.621 113.606 130.55C113.5 130.479 113.464 130.336 113.5 130.193C113.464 129.979 113.713 129.801 113.82 129.658C113.962 129.48 114.069 129.266 114.176 129.052C114.211 128.91 114.247 128.767 114.282 128.696C114.354 128.375 114.389 128.018 114.282 127.733C114.211 127.519 114.211 127.305 114.105 127.127C113.891 126.842 113.678 126.628 113.5 126.343L113.037 125.38C112.966 125.202 113.002 124.952 113.002 124.774C113.037 124.702 113.002 124.56 113.037 124.524C113.073 124.453 113.144 124.453 113.144 124.346C113.286 124.025 113.144 123.74 113.073 123.454C113.073 123.312 113.108 123.241 113.108 123.098C113.144 122.884 113.073 122.813 113.002 122.599C112.895 122.456 112.931 122.349 112.931 122.242C112.966 122.064 112.859 121.921 112.895 121.743C112.931 121.565 113.037 121.422 112.931 121.208C112.859 120.959 112.859 120.602 112.717 120.388C112.682 120.317 112.61 120.246 112.539 120.139C112.077 119.568 111.792 119.176 112.219 118.57C112.717 117.821 111.97 117.5 112.219 117.072C112.824 117.108 113.073 116.181 113.464 115.86C113.82 115.575 115.065 115.646 115.065 115.147L114.033 115.361C113.535 115.361 113.429 115.468 113.073 115.682C112.859 115.86 112.753 116.109 112.539 116.323C112.255 116.609 111.863 116.68 111.757 117.108C111.721 117.322 112.077 117.785 111.899 117.964C111.472 118.32 111.436 117.464 111.401 117.322C111.401 116.823 111.294 116.216 111.259 115.682C111.152 114.719 110.512 114.148 109.942 113.507C109.587 113.15 109.195 112.758 108.875 112.33C108.697 112.08 108.626 111.76 108.306 111.51C108.092 111.332 107.95 111.153 107.701 110.975C107.559 110.797 107.31 110.619 107.239 110.369C107.025 109.799 107.132 109.299 107.417 108.765C107.488 108.586 107.345 108.301 107.417 108.158C107.523 108.051 107.666 107.659 107.879 107.517C107.559 107.837 107.096 107.944 106.954 108.337C106.847 108.622 107.239 108.871 106.776 109.157C106.634 109.264 106.492 109.335 106.456 109.513C106.385 109.656 106.669 109.727 106.598 109.87C106.456 110.369 106.171 109.87 105.851 110.119C105.638 110.298 105.745 110.619 105.318 110.547C104.998 110.476 104.891 109.763 104.606 110.155C104.428 110.369 104.784 110.654 104.357 110.904C104.037 110.833 103.254 110.191 103.148 110.726C103.041 111.153 103.681 111.153 103.895 111.51C104.073 111.938 103.752 112.08 103.468 112.33C103.254 112.58 103.148 112.936 102.756 113.007C102.543 113.007 101.867 112.794 101.654 112.615C101.511 112.508 101.298 112.401 101.191 112.259C100.8 111.76 100.586 112.259 100.231 112.437C99.8392 112.615 99.2345 112.259 98.9855 111.902C98.6653 111.474 98.7009 111.189 98.2384 110.868C97.7404 110.512 97.1356 110.226 96.851 109.692C96.602 109.192 96.6376 108.658 96.4241 108.194C96.3174 107.944 96.1395 107.731 95.8549 107.624C95.4636 107.517 95.2857 107.802 95.0367 108.123C94.7521 108.479 93.4359 109.264 94.4675 109.406C94.8233 109.442 95.2502 109.157 95.5703 109.513C96.0328 110.048 95.9261 110.868 95.8549 111.474C95.8549 111.688 95.7126 112.08 95.9972 112.152C96.2462 112.223 96.4241 111.76 96.6731 111.831C96.9933 111.902 96.9933 112.473 96.9933 112.687C97.0289 113.007 97.0644 113.364 97.2779 113.614C97.4913 113.863 97.8827 113.935 98.0605 114.22C98.3451 114.505 98.2028 114.79 98.0605 115.182C97.9182 115.539 97.8826 115.931 97.8471 116.323C97.8471 116.466 97.7759 116.644 97.7759 116.787C97.7759 116.965 97.8827 117.037 97.9182 117.179C98.025 117.678 97.7048 117.607 97.4558 117.928C97.2779 118.177 97.4913 118.391 97.5269 118.641C97.5625 119.069 97.2423 119.14 97.0289 119.354C96.8154 119.568 96.8154 119.853 96.5308 120.067C96.2818 120.245 96.0328 120.281 95.8194 120.531C95.6059 120.745 95.5703 120.959 95.2857 121.101C95.2502 121.137 95.1434 121.101 95.0723 121.137C95.0011 121.208 95.0011 121.315 95.0011 121.351C94.8233 121.493 94.8944 121.529 94.7521 121.351C94.681 121.28 94.681 121.137 94.6098 121.03C94.5387 120.78 94.3252 120.78 94.2185 120.673C94.0406 120.459 94.1118 120.317 94.2541 120.139L94.4319 119.639C94.4675 119.604 94.4675 119.461 94.5387 119.39C94.5387 119.283 94.6098 119.14 94.681 119.033C94.7165 118.926 94.7521 118.819 94.7521 118.712C94.7521 118.641 94.7877 118.463 94.8233 118.427C94.8588 118.356 95.0011 118.356 95.0367 118.284C95.1079 118.142 95.0011 117.964 95.0011 117.821C95.0723 117.286 95.5703 117.179 95.6771 116.93C95.8905 116.466 95.3213 116.609 95.179 116.252C95.0367 115.789 95.4992 115.432 95.4636 114.933C95.4636 114.434 95.428 113.935 95.2857 113.435C95.1434 113.043 94.93 112.437 94.4675 112.33C94.2897 112.294 93.8628 112.544 93.7916 112.259C93.7205 111.973 94.2541 111.76 94.2541 111.474C94.2541 111.082 93.8628 110.868 93.6137 110.619C93.6493 110.761 94.0406 111.403 93.7205 111.581C93.5426 111.938 93.6493 112.009 93.258 112.116C92.8311 112.259 92.8311 112.508 93.3292 112.722C93.8628 112.936 94.1474 112.972 93.9695 113.578C93.8983 113.97 94.0051 114.362 94.1829 114.719C94.3608 115.075 94.7521 115.325 94.8233 115.682C94.93 116.109 94.5031 116.145 94.3252 116.502C94.1118 116.787 94.0762 117.144 93.8272 117.464C93.6137 117.785 93.1513 117.999 93.0446 118.32C92.8667 118.677 92.7244 118.677 92.5821 118.998C92.4042 119.39 92.4398 119.604 91.9773 119.889C91.5149 120.139 91.0168 119.818 91.3014 119.283C91.337 119.212 91.7995 118.998 91.6927 118.819C91.586 118.677 91.3014 118.926 91.1947 118.962C90.9101 119.105 90.8034 119.14 90.5188 118.998C90.5544 119.247 90.6967 119.639 90.5899 119.925C90.4121 120.317 89.8784 120.245 89.6294 120.032C89.4516 119.889 89.4516 119.853 89.2381 119.782C89.0247 119.711 88.6689 119.711 88.7045 119.532C88.8112 119.283 88.6334 118.891 88.242 119.176C87.993 119.354 88.5978 119.711 88.5978 120.067C88.5978 120.281 88.2065 120.638 88.0642 120.816C87.9574 120.923 87.8151 121.03 87.6728 121.137C87.495 121.315 87.3882 121.458 87.2104 121.672C86.9969 121.957 86.8546 122.135 86.7123 122.527C86.57 122.92 85.8941 123.419 85.6451 122.813C85.5028 122.527 85.6807 121.993 85.8941 121.743C86.1432 121.493 86.3922 121.6 86.4633 121.208C86.5345 120.959 87.0681 119.96 86.57 120.139C86.2143 120.495 86.1432 120.816 86.0364 121.315C85.8586 121.315 85.6095 121.101 85.4672 120.959C85.2182 120.709 85.1471 120.566 85.3961 120.388C85.5028 120.352 85.5384 120.317 85.6807 120.245C85.8586 120.21 85.8941 120.103 85.8586 119.889C85.823 119.746 86.3566 119.212 85.9653 119.247C85.8586 119.283 85.4672 119.675 85.3249 119.746C85.0759 119.925 84.8981 120.245 84.7558 120.602C84.5779 121.03 84.7913 120.923 85.0048 121.208C85.0759 121.351 85.1471 121.85 85.0759 122.028C84.9692 121.957 84.8981 121.814 84.7913 121.743C84.6846 121.672 84.5423 121.743 84.4 121.6C84.3289 121.493 84.2577 121.173 84.2221 121.03C84.0443 120.281 84.1866 119.639 84.2221 118.891C83.653 118.819 83.7952 119.176 83.5818 119.568C83.4751 119.39 83.5107 119.105 83.4395 118.926" fill="#FCEE23"/>
<path d="M100.486 116.049C100.458 116.269 100.544 116.489 100.544 116.709C100.572 116.856 100.544 117.076 100.572 117.259C100.572 117.515 100.745 117.735 100.86 117.955C101.089 118.395 100.975 118.945 100.946 119.458C100.86 119.971 100.716 120.484 100.429 120.85C100.343 120.997 100.228 121.107 100.17 121.217C100.056 121.327 99.9693 121.327 99.8545 121.363C99.6821 121.437 99.4811 121.73 99.3375 121.876C99.2226 121.986 99.1651 122.023 99.0215 121.986C98.9928 121.876 98.9928 121.766 99.0215 121.656C99.0215 121.437 98.9928 121.07 99.079 120.887C99.1652 120.63 99.3662 120.447 99.4524 120.191C99.5672 119.971 99.6534 119.751 99.7108 119.458C99.7396 119.238 99.7396 118.981 99.7683 118.761C99.7683 118.688 99.7683 118.578 99.7683 118.505C99.797 117.992 99.7396 117.515 99.797 117.002C99.8257 116.599 100.056 115.793 100.486 116.049Z" fill="#FCEE23"/>
<path d="M105.311 114.71C105.172 114.897 105.138 114.972 105.172 115.196C105.207 115.457 105.172 115.457 105.034 115.682C104.964 115.868 104.999 116.055 105.172 116.242C105.381 116.392 105.728 116.317 105.728 116.69C105.728 116.803 105.728 116.877 105.728 116.989C105.797 117.102 105.867 117.176 105.901 117.326C105.936 117.438 105.901 118.036 106.075 117.998C106.179 117.998 106.179 117.849 106.179 117.737C106.283 117.55 106.457 117.587 106.665 117.625C106.838 117.662 106.873 117.699 106.942 117.55C107.012 117.4 107.012 117.176 106.977 117.027C106.942 116.915 106.873 116.803 106.873 116.653C106.873 116.578 106.942 116.466 106.942 116.317C106.942 115.98 106.769 115.719 106.491 115.569C106.109 115.42 106.144 114.972 106.005 114.635C105.971 114.411 105.867 114.112 105.693 114C105.658 114.149 105.728 114.336 105.658 114.448C105.624 114.561 105.45 114.635 105.415 114.747L105.311 114.71Z" fill="#FCEE23"/>
</g>
<defs>
<clipPath id="clip0_0_1">
<rect width="360" height="800" fill="white" transform="translate(-87 -91)"/>
</clipPath>
</defs>
</svg>
